<!-- Generator: Adobe Illustrator 24.3.0, SVG Export Plug-In  -->
<svg version="1.1" xmlns="http://www.w3.org/2000/svg" xmlns:xlink="http://www.w3.org/1999/xlink" x="0px" y="0px" width="117.1px"
	 height="90.2px" viewBox="0 0 117.1 90.2" style="overflow:visible;enable-background:new 0 0 117.1 90.2;" xml:space="preserve">
<style type="text/css">
	.st0{opacity:0.86;}
	.st1{fill:#FF8C00;}
</style>
<defs>
</defs>
<g class="st0">
	<g>
		<path d="M47.1,8.1c-1.1-1.5-2.4-3.1-4-3.7c-0.8-0.3-1.7-0.2-2.4,0.3c-0.7,0.5-1.3,1.2-1.7,2c-0.9,1.6-1.5,3.4-1.8,5.3
			c-0.4,1.8-0.6,3.7-0.4,5.5l-1.3,0c0.1-1.7-0.1-3.6-0.4-5.3c-0.3-1.8-0.8-3.5-1.5-5.2c-0.7-1.6-1.7-3.1-3-4.1
			c-1.3-1-2.9-1.2-4.5-0.8c-1.6,0.4-3.2,1.2-4.7,2.2c-0.7,0.5-1.5,1-2.1,1.6C18.6,6.4,18,7,17.4,7.7c-2.3,2.7-4.2,5.8-5.8,9
			c-3.2,6.5-5.4,13.5-6.7,20.7c-1.3,7.1-1.8,14.5-1,21.6c0.4,3.6,1.2,7.1,2.4,10.4c1.2,3.3,2.9,6.4,5.2,8.9c2.3,2.5,5.1,4.5,8.2,5.7
			c1.6,0.6,3.2,1,4.9,1.3c1.7,0.3,3.4,0.4,5.1,0.4c1.7,0,3.4-0.3,5-0.7c1.6-0.4,3.2-1,4.7-1.7c3-1.5,5.8-3.6,8.3-6.1
			c2.5-2.5,4.6-5.3,6.6-8.3c1-1.5,1.9-3,2.9-4.6c0.9-1.6,1.8-3.2,2.9-4.8c0.8-1.2,2.4-1.6,3.6-0.8c1.2,0.8,1.6,2.4,0.8,3.6l0,0l0,0
			c-1.9,3-3.8,6.3-5.9,9.5c-2.1,3.2-4.6,6.2-7.4,8.9c-2.8,2.7-6,5.2-9.7,6.9c-1.8,0.8-3.7,1.5-5.7,2c-2,0.4-4,0.7-6,0.7
			c-2,0-4-0.1-5.9-0.5c-1.9-0.3-3.9-0.9-5.8-1.6c-3.7-1.5-7.1-4-9.7-7c-2.6-3.1-4.5-6.6-5.7-10.3c-1.3-3.7-2-7.5-2.3-11.3
			c-0.7-7.6,0-15.2,1.5-22.6c1.5-7.4,4-14.6,7.5-21.2c1.8-3.3,3.9-6.5,6.4-9.4c0.6-0.7,1.3-1.4,2.1-2c0.8-0.6,1.6-1.2,2.4-1.7
			c1.6-1,3.4-1.9,5.4-2.3c1-0.2,2.1-0.2,3.1,0c1,0.2,2,0.7,2.9,1.3c1.7,1.3,2.7,3.1,3.4,4.9c0.7,1.8,1.1,3.7,1.4,5.5
			c0.3,1.9,0.4,3.7,0.2,5.7c0,0.4-0.3,0.6-0.7,0.6c-0.3,0-0.6-0.3-0.6-0.6c-0.1-2,0.2-4,0.6-5.9c0.5-1.9,1.1-3.8,2.1-5.5
			c0.5-0.8,1.2-1.7,2.1-2.2c0.9-0.6,2.2-0.7,3.1-0.3c1,0.4,1.8,1.1,2.4,1.8C46.4,6.2,47,7,47.5,7.8c0.1,0.1,0.1,0.3-0.1,0.4
			C47.3,8.3,47.1,8.2,47.1,8.1z"/>
	</g>
	<path class="st1" d="M59.2,61.5c0.4-0.3,7.2-10,20-13.7s24.2-1.2,24.2-1.2c-3.6-5.7-5-7.2-9.9-11.7c-2.4-2.2-5.1-4.2-7.9-5.7
		c-2.8-1.5-5.9-2.6-9.1-3.1c-3.2-0.5-6.5-0.4-9.7,0.3c-3.2,0.7-6.4,1.9-9.4,3.4c-3,1.6-5.9,3.5-8.6,5.7c-2.7,2.2-5.2,4.6-7.6,7.2
		c3.9-5.8,8.9-11,14.9-15c3-2,6.3-3.6,9.8-4.7c3.5-1.1,7.3-1.6,11.1-1.3c3.8,0.2,7.5,1.3,10.9,2.8c3.4,1.5,6.6,3.6,9.5,5.9
		c5.8,4.6,10.5,10.3,14.7,16.2l5.1,7.2c0,0-16.5-8-33-2.7c-12.8,4.1-19.3,10.9-20.7,13.2c-0.4,0.6-0.6,1-0.6,1S59.4,61.6,59.2,61.5z
		"/>
	<g>
		<path d="M43.1,28.6c-0.7,0-1.5-0.5-2.7-5.3c-0.1-0.5-0.2-0.9-0.3-1.3c-0.4-1.4-0.6-2.1-0.2-3.8l0.2-0.9l1-0.1c0.4,0,1.5,0,2.8,5.3
			c1.1,4.4,0.6,5.2,0.4,5.5L44,28.5l-0.6,0.1C43.3,28.6,43.2,28.6,43.1,28.6z"/>
	</g>
	<g>
		<path d="M33.7,33.7c-0.7,0-1.5-0.5-2.7-5.3c-1.3-5.1-0.4-5.6-0.1-5.9l0.7-0.4l0.7,0.5c1.3,1.1,1.5,2.1,1.8,3.5
			c0.1,0.4,0.2,0.9,0.3,1.5c1.1,4.4,0.6,5.2,0.4,5.5l-0.3,0.4L34,33.7C33.9,33.7,33.8,33.7,33.7,33.7z"/>
	</g>
	<g>
		<path class="st1" d="M65.6,24.8c-1.4,1-2.4,2.3-3.1,3.7c-0.7,1.4-1.2,3-1.5,4.5c-0.6,3.1-0.5,6.4-0.2,9.5c0.4,3.1,1.1,6.2,2.2,9
			c0.5,1.4,1.2,2.7,1.9,3.7c0.4,0.5,0.7,0.9,1.1,1.2c0.3,0.2,0.6,0.3,0.5,0.1L62.5,65c-1.6-0.9-2.6-2-3.3-3.1c-0.7-1-1.2-2.1-1.6-3
			c-0.8-2-1.1-3.8-1.4-5.7c-0.5-3.7-0.5-7.2-0.1-10.7c0.4-3.5,1.2-6.9,2.6-10.2c0.7-1.6,1.6-3.1,2.7-4.5
			C62.6,26.6,64,25.4,65.6,24.8z"/>
	</g>
</g>
</svg>
