<!-- Generator: Adobe Illustrator 24.3.0, SVG Export Plug-In  -->
<svg version="1.1" xmlns="http://www.w3.org/2000/svg" xmlns:xlink="http://www.w3.org/1999/xlink" x="0px" y="0px" width="631.4px"
	 height="433.4px" viewBox="0 0 631.4 433.4" style="overflow:visible;enable-background:new 0 0 631.4 433.4;"
	 xml:space="preserve">
<style type="text/css">
	.st0{fill:#F2F2F2;}
	.st1{fill:#FFFFFF;}
	.st2{fill:#FFB8B8;}
	.st3{fill:#2F2E41;}
	.st4{fill:#FF8C00;}
	.st5{fill:#E6E6E6;}
	.st6{fill:#3F3D56;}
</style>
<defs>
</defs>
<g>
	<path class="st0" d="M607.9,367.1c-7.1,24.5-27.7,41.6-49.2,56.2c-3,2-6,4-9,6c0,0,0,0-0.1,0c-0.1,0.1-0.3,0.2-0.4,0.3
		c-0.6,0.4-1.2,0.8-1.9,1.2l0.3,0.2c0,0,0.3,0.2,0,0c-0.1,0-0.2-0.1-0.3-0.1c-12.5-5-25.2-10.4-34.8-19.9
		c-9.9-9.8-15.7-25.2-10.4-38c0.7-1.7,1.6-3.3,2.7-4.8c0.4-0.6,0.9-1.2,1.4-1.8c9.2-11.3,25.8-12.9,37.1-3.7
		c3.7,3.1,6.6,7.1,8.2,11.7c1.6-14.7-10.5-27-22.2-36.1c-11.7-9.1-24.9-19-27.2-33.6c-1.3-8.1,1.6-16,6.7-22.4
		c0.2-0.2,0.3-0.4,0.5-0.6c6.3-7.4,15.1-12.1,24.7-13.3c17.9-1.9,35.3,7.6,48.3,20.1C603.2,308.5,615.9,339.2,607.9,367.1z"/>
	<path class="st1" d="M574.2,335.1c3.4,5.3,6.1,11.2,7.8,17.3c1.5,5.5,2.1,11.1,2,16.8c-0.5,11.6-3.7,23-9.5,33.1
		c-4.4,7.7-9.7,14.8-15.8,21.1c-3,2-6,4-9,6c0,0,0,0-0.1,0c-0.1,0.1-0.3,0.2-0.4,0.3c-0.6,0.4-1.2,0.8-1.9,1.2c0,0,0.7,0.3,0.3,0.2
		c-0.1,0-0.2-0.1-0.3-0.1c2.3-18.6-4.6-37.2-18.5-49.8c-6.9-6.1-15.1-10.5-24-12.9c0.4-0.6,0.9-1.2,1.4-1.8c3.4,1,6.8,2.2,10,3.8
		c11.5,5.5,20.9,14.6,26.8,25.8c5.3,10.2,7.6,21.8,6.6,33.3c0.5-0.5,1-0.9,1.5-1.4c9.5-8.8,17.9-19,23.6-30.7
		c4.9-9.9,7.4-20.9,7.1-32c-0.5-12.1-5.3-23.3-12.3-33c-7.6-10.4-16.7-19.7-26.8-27.7c-10.2-8.2-21.5-15.1-33.4-20.6
		c-0.6-0.3-0.8-0.9-0.6-1.5c0.1-0.2,0.3-0.5,0.5-0.6c0.2-0.1,0.5-0.1,0.7,0c1.5,0.7,2.9,1.4,4.4,2.1c12.1,6,23.4,13.4,33.6,22.2
		C557.9,314.4,567.3,324,574.2,335.1z"/>
	<path class="st2" d="M321.8,221.9c5.5-2,8.4-8.1,6.4-13.6c-0.2-0.6-0.5-1.2-0.8-1.7L352,178l-19.5-2.5L312.1,203
		c-4.9,3.3-6.2,9.9-2.9,14.8C311.9,221.9,317.1,223.6,321.8,221.9z"/>
	<path class="st2" d="M460.9,227.9c3.9-4.4,3.4-11.1-1-15c-0.5-0.4-1-0.8-1.5-1.1l7.8-36.9L448,182l-4.7,34
		c-2.7,5.2-0.7,11.7,4.6,14.4C452.3,232.7,457.7,231.7,460.9,227.9L460.9,227.9z"/>
	<polygon class="st2" points="372.5,420.5 359.5,420.5 353.4,370.5 372.5,370.5 	"/>
	<path class="st3" d="M375.8,433.1l-41.8,0v-0.5c0-9,7.3-16.3,16.3-16.3c0,0,0,0,0,0h0l25.5,0L375.8,433.1z"/>
	<polygon class="st2" points="435.9,420.5 423,420.5 416.8,370.5 435.9,370.5 	"/>
	<path class="st3" d="M439.2,433.1l-41.8,0v-0.5c0-9,7.3-16.3,16.3-16.3c0,0,0,0,0,0h0l25.5,0L439.2,433.1z"/>
	<path class="st3" d="M373.8,394.4l-18.3-0.7c-2.6-0.1-4.6-2.3-4.6-4.9l5.2-169.5l0.3-0.1c32.2-11.6,58.7-10.8,81.3,2.7l0.3,0.2
		l3.1,165.1c0,2.6-2,4.8-4.7,4.8c0,0-0.1,0-0.1,0h-15.5c-2.3,0-4.2-1.6-4.7-3.8l-21.1-107.2c-0.2-0.9-1-1.4-1.9-1.3
		c-0.7,0.1-1.2,0.7-1.3,1.4l-13.3,109.2c-0.3,2.4-2.3,4.2-4.7,4.2C374,394.4,373.9,394.4,373.8,394.4z"/>
	<circle class="st2" cx="391.7" cy="44.6" r="26"/>
	<path class="st4" d="M330.5,201.3c-0.9-0.4-1.7-1-2.2-1.8l-5-7.5c-1.1-1.7-1.1-3.8,0.1-5.5l20.2-27.4l12.7-60.8
		c3.1-7.9,12-11.8,19.8-8.7c7.9,3.1,11.8,12,8.7,19.8l-6,38.7c-1.8,11.7-7.8,22.4-16.9,30.1l-26.6,22.3c-1,0.9-2.4,1.3-3.7,1.1
		C331.2,201.5,330.9,201.4,330.5,201.3z"/>
	<path class="st4" d="M459.8,204c-0.9,0.3-1.9,0.4-2.8,0.1l-8.7-2.3c-1.9-0.5-3.3-2.2-3.5-4.2l-3-34l-30.7-54
		c-2.9-7.9,1.2-16.7,9.1-19.7c7.9-2.9,16.7,1.2,19.7,9.1c0,0,0,0,0,0l21.1,33c6.4,10,8.9,22,7.1,33.8l-5.2,34.4
		c-0.2,1.3-1,2.5-2.1,3.3C460.5,203.7,460.2,203.9,459.8,204z"/>
	<path class="st4" d="M363.3,90.7c9-9.9,22.1-15.2,35.5-14.3c0.4,0,0.9,0.1,1.3,0.1h0c12.7,1,24.3,7.4,31.9,17.6
		c7.7,10.3,10.6,23.5,8,36.1c-5,23.8-3.8,48.6,3.7,71.7l7,21.6c0.8,2.5-0.6,5.2-3.1,6c-0.4,0.1-0.8,0.2-1.2,0.2l-35.6,1.9l-9.1-15.7
		v16.2l-43.3,2.3c-0.1,0-0.2,0-0.3,0c-2.6,0-4.8-2.1-4.8-4.8c0-0.1,0-0.3,0-0.4l4.9-60.7l-6.1-41.2
		C350,114.1,354.2,100.6,363.3,90.7z"/>
	<path class="st3" d="M409.7,69.4c-2.4,1.4-11.9,2.3-12.6-0.4l0-0.1c-0.5-2-0.1-4,0.1-6c0.1-2-0.1-4.2-1.4-5.7
		c-2.6-2.8-7.1-1.3-10.8-2c-4.5-1-7.5-5.2-7.1-9.8c0.1-0.4,0.1-0.8,0.2-1.3c0.8-3.8-1.6-7.6-5.4-8.4c-0.6-0.1-1.3-0.2-1.9-0.1
		c-3.8,0.2-7.8,1.4-10.9-1.4c-2.4-2.1-3-7.7-1.9-10.8c1.8-5.1,13.1-7.8,18.1-9.3c12.4-3.6,25.8-1.4,36.4,6c3.1,2.2,6.1,5,7.4,8.6
		s0.7,8.1-2.3,10.5c4.7,5,6.5,12.2,4.5,18.8C420.4,62.7,413.3,67.3,409.7,69.4z"/>
	<path class="st5" d="M281.2,145.9H47.6c-0.6,0-1.1-0.5-1.1-1.1s0.5-1.1,1.1-1.1h233.6c0.6,0,1.1,0.5,1.1,1.1
		S281.8,145.9,281.2,145.9z"/>
	<path class="st6" d="M230,145.9H97.2c-0.6,0-1.1-0.5-1.1-1.1s0.5-1.1,1.1-1.1H230c0.6,0,1.1,0.5,1.1,1.1S230.6,145.9,230,145.9z"/>
	<path class="st6" d="M164.9,145.9c-0.6,0-1.1-0.5-1.1-1.1V78.2c0-0.6,0.5-1.1,1.1-1.1c0.6,0,1.1,0.5,1.1,1.1v66.6
		C166,145.4,165.5,145.9,164.9,145.9z"/>
	<path class="st6" d="M231.5,145.9c-0.6,0-1.1-0.5-1.1-1.1V11.6c0-0.6,0.5-1.1,1.1-1.1s1.1,0.5,1.1,1.1v133.2
		C232.6,145.4,232.1,145.9,231.5,145.9z"/>
	<circle class="st5" cx="11.6" cy="11.6" r="11.6"/>
	<circle class="st5" cx="11.6" cy="78.2" r="11.6"/>
	<circle class="st5" cx="11.6" cy="144.8" r="11.6"/>
	<path class="st5" d="M281.2,12.7H47.6c-0.6,0-1.1-0.5-1.1-1.1c0-0.6,0.5-1.1,1.1-1.1h233.6c0.6,0,1.1,0.5,1.1,1.1
		C282.2,12.2,281.8,12.7,281.2,12.7z"/>
	<path class="st5" d="M281.2,79.3H47.6c-0.6,0-1.1-0.5-1.1-1.1c0-0.6,0.5-1.1,1.1-1.1h233.6c0.6,0,1.1,0.5,1.1,1.1
		C282.2,78.8,281.8,79.3,281.2,79.3z"/>
	<circle class="st4" cx="97.8" cy="144.8" r="11.6"/>
	<circle class="st4" cx="164.9" cy="78.2" r="11.6"/>
	<circle class="st4" cx="164.9" cy="144.8" r="11.6"/>
	<circle class="st4" cx="231.5" cy="11.6" r="11.6"/>
	<circle class="st4" cx="231.5" cy="78.2" r="11.6"/>
	<circle class="st4" cx="231.5" cy="144.8" r="11.6"/>
	<path class="st6" d="M630.3,433.4H166.3c-0.6,0-1.1-0.5-1.1-1.1c0-0.6,0.5-1.1,1.1-1.1h464.1c0.6,0,1.1,0.5,1.1,1.1
		C631.4,432.9,630.9,433.4,630.3,433.4z"/>
	<path class="st4" d="M237.8,339.4c-0.7,0-1.4-0.1-2.1-0.1c-22.2,0-40.2,18-40.2,40.2l0,0h42.3V339.4z"/>
	<path class="st6" d="M246.3,433.4c-22.8,0-41.2-18.5-41.2-41.2c0-0.6,0.5-1.1,1.1-1.1h41.2v-39.1c0-0.3,0.1-0.6,0.3-0.8
		c0.2-0.2,0.5-0.3,0.8-0.3c22.7,1.2,40.2,20.6,39,43.3C286.3,416.2,268.2,433.4,246.3,433.4z M207.2,393.2
		c0.6,21.6,18.6,38.6,40.2,38c21.6-0.6,38.6-18.6,38-40.2c-0.5-20-16-36.3-35.9-37.9v39c0,0.6-0.5,1.1-1.1,1.1H207.2z"/>
</g>
</svg>
